<?xml version="1.0" encoding="UTF-8"?>
<svg xmlns="http://www.w3.org/2000/svg" xmlns:xlink="http://www.w3.org/1999/xlink" width="119.762" height="63.069" viewBox="0 0 119.762 63.069">
<defs>
<clipPath id="clip-0">
<path clip-rule="nonzero" d="M 0 51 L 12 51 L 12 63.070312 L 0 63.070312 Z M 0 51 "/>
</clipPath>
<clipPath id="clip-1">
<path clip-rule="nonzero" d="M 51 51 L 69 51 L 69 63.070312 L 51 63.070312 Z M 51 51 "/>
</clipPath>
<clipPath id="clip-2">
<path clip-rule="nonzero" d="M 113 56 L 119.761719 56 L 119.761719 63 L 113 63 Z M 113 56 "/>
</clipPath>
<clipPath id="clip-3">
<path clip-rule="nonzero" d="M 107 51 L 119.761719 51 L 119.761719 63.070312 L 107 63.070312 Z M 107 51 "/>
</clipPath>
<clipPath id="clip-4">
<path clip-rule="nonzero" d="M 113 0 L 119.761719 0 L 119.761719 7 L 113 7 Z M 113 0 "/>
</clipPath>
<clipPath id="clip-5">
<path clip-rule="nonzero" d="M 107 0 L 119.761719 0 L 119.761719 12 L 107 12 Z M 107 0 "/>
</clipPath>
<clipPath id="clip-6">
<path clip-rule="nonzero" d="M 0 0 L 119.761719 0 L 119.761719 63.070312 L 0 63.070312 Z M 0 0 "/>
</clipPath>
</defs>
<path fill-rule="nonzero" fill="rgb(0%, 0%, 0%)" fill-opacity="1" d="M 6.175781 59.882812 C 6.175781 58.230469 4.839844 56.890625 3.1875 56.890625 C 1.539062 56.890625 0.199219 58.230469 0.199219 59.882812 C 0.199219 61.53125 1.539062 62.871094 3.1875 62.871094 C 4.839844 62.871094 6.175781 61.53125 6.175781 59.882812 Z M 6.175781 59.882812 "/>
<g clip-path="url(#clip-0)">
<path fill="none" stroke-width="0.3985" stroke-linecap="butt" stroke-linejoin="miter" stroke="rgb(0%, 0%, 0%)" stroke-opacity="1" stroke-miterlimit="10" d="M 2.987781 -0.0018125 C 2.987781 1.650531 1.651844 2.990375 -0.0005 2.990375 C -1.648938 2.990375 -2.988781 1.650531 -2.988781 -0.0018125 C -2.988781 -1.65025 -1.648938 -2.990094 -0.0005 -2.990094 C 1.651844 -2.990094 2.987781 -1.65025 2.987781 -0.0018125 Z M 2.987781 -0.0018125 " transform="matrix(1, 0, 0, -1, 3.188, 59.881)"/>
</g>
<path fill-rule="nonzero" fill="rgb(0%, 0%, 0%)" fill-opacity="1" d="M 62.871094 59.882812 C 62.871094 58.230469 61.53125 56.890625 59.882812 56.890625 C 58.230469 56.890625 56.894531 58.230469 56.894531 59.882812 C 56.894531 61.53125 58.230469 62.871094 59.882812 62.871094 C 61.53125 62.871094 62.871094 61.53125 62.871094 59.882812 Z M 62.871094 59.882812 "/>
<g clip-path="url(#clip-1)">
<path fill="none" stroke-width="0.3985" stroke-linecap="butt" stroke-linejoin="miter" stroke="rgb(0%, 0%, 0%)" stroke-opacity="1" stroke-miterlimit="10" d="M 59.683094 -0.0018125 C 59.683094 1.650531 58.34325 2.990375 56.694812 2.990375 C 55.042469 2.990375 53.706531 1.650531 53.706531 -0.0018125 C 53.706531 -1.65025 55.042469 -2.990094 56.694812 -2.990094 C 58.34325 -2.990094 59.683094 -1.65025 59.683094 -0.0018125 Z M 59.683094 -0.0018125 " transform="matrix(1, 0, 0, -1, 3.188, 59.881)"/>
</g>
<g clip-path="url(#clip-2)">
<path fill-rule="nonzero" fill="rgb(0%, 0%, 0%)" fill-opacity="1" d="M 119.5625 59.882812 C 119.5625 58.230469 118.226562 56.890625 116.574219 56.890625 C 114.925781 56.890625 113.585938 58.230469 113.585938 59.882812 C 113.585938 61.53125 114.925781 62.871094 116.574219 62.871094 C 118.226562 62.871094 119.5625 61.53125 119.5625 59.882812 Z M 119.5625 59.882812 "/>
</g>
<g clip-path="url(#clip-3)">
<path fill="none" stroke-width="0.3985" stroke-linecap="butt" stroke-linejoin="miter" stroke="rgb(0%, 0%, 0%)" stroke-opacity="1" stroke-miterlimit="10" d="M 116.3745 -0.0018125 C 116.3745 1.650531 115.038562 2.990375 113.386219 2.990375 C 111.737781 2.990375 110.397937 1.650531 110.397937 -0.0018125 C 110.397937 -1.65025 111.737781 -2.990094 113.386219 -2.990094 C 115.038562 -2.990094 116.3745 -1.65025 116.3745 -0.0018125 Z M 116.3745 -0.0018125 " transform="matrix(1, 0, 0, -1, 3.188, 59.881)"/>
</g>
<path fill-rule="nonzero" fill="rgb(0%, 0%, 0%)" fill-opacity="1" stroke-width="0.3985" stroke-linecap="butt" stroke-linejoin="miter" stroke="rgb(0%, 0%, 0%)" stroke-opacity="1" stroke-miterlimit="10" d="M 59.683094 28.345844 C 59.683094 29.998188 58.34325 31.334125 56.694812 31.334125 C 55.042469 31.334125 53.706531 29.998188 53.706531 28.345844 C 53.706531 26.697406 55.042469 25.357563 56.694812 25.357563 C 58.34325 25.357563 59.683094 26.697406 59.683094 28.345844 Z M 59.683094 28.345844 " transform="matrix(1, 0, 0, -1, 3.188, 59.881)"/>
<path fill-rule="nonzero" fill="rgb(0%, 0%, 0%)" fill-opacity="1" stroke-width="0.3985" stroke-linecap="butt" stroke-linejoin="miter" stroke="rgb(0%, 0%, 0%)" stroke-opacity="1" stroke-miterlimit="10" d="M 2.987781 56.6935 C 2.987781 58.345844 1.651844 59.681781 -0.0005 59.681781 C -1.648938 59.681781 -2.988781 58.345844 -2.988781 56.6935 C -2.988781 55.041156 -1.648938 53.705219 -0.0005 53.705219 C 1.651844 53.705219 2.987781 55.041156 2.987781 56.6935 Z M 2.987781 56.6935 " transform="matrix(1, 0, 0, -1, 3.188, 59.881)"/>
<g clip-path="url(#clip-4)">
<path fill-rule="nonzero" fill="rgb(0%, 0%, 0%)" fill-opacity="1" d="M 119.5625 3.1875 C 119.5625 1.535156 118.226562 0.199219 116.574219 0.199219 C 114.925781 0.199219 113.585938 1.535156 113.585938 3.1875 C 113.585938 4.839844 114.925781 6.175781 116.574219 6.175781 C 118.226562 6.175781 119.5625 4.839844 119.5625 3.1875 Z M 119.5625 3.1875 "/>
</g>
<g clip-path="url(#clip-5)">
<path fill="none" stroke-width="0.3985" stroke-linecap="butt" stroke-linejoin="miter" stroke="rgb(0%, 0%, 0%)" stroke-opacity="1" stroke-miterlimit="10" d="M 116.3745 56.6935 C 116.3745 58.345844 115.038562 59.681781 113.386219 59.681781 C 111.737781 59.681781 110.397937 58.345844 110.397937 56.6935 C 110.397937 55.041156 111.737781 53.705219 113.386219 53.705219 C 115.038562 53.705219 116.3745 55.041156 116.3745 56.6935 Z M 116.3745 56.6935 " transform="matrix(1, 0, 0, -1, 3.188, 59.881)"/>
</g>
<g clip-path="url(#clip-6)">
<path fill="none" stroke-width="0.3985" stroke-linecap="butt" stroke-linejoin="miter" stroke="rgb(0%, 0%, 0%)" stroke-opacity="1" stroke-miterlimit="10" d="M -0.0005 -0.0018125 L 113.386219 -0.0018125 L 113.386219 56.6935 L -0.0005 56.6935 L -0.0005 -0.0018125 L 56.694812 28.345844 L 56.694812 -0.0018125 " transform="matrix(1, 0, 0, -1, 3.188, 59.881)"/>
</g>
<path fill="none" stroke-width="0.3985" stroke-linecap="butt" stroke-linejoin="miter" stroke="rgb(0%, 0%, 0%)" stroke-opacity="1" stroke-miterlimit="10" d="M 56.694812 28.345844 L -0.0005 56.6935 " transform="matrix(1, 0, 0, -1, 3.188, 59.881)"/>
</svg>
